<svg xmlns="http://www.w3.org/2000/svg" xmlns:xlink="http://www.w3.org/1999/xlink" width="500" zoomAndPan="magnify" viewBox="0 0 375 374.999991" height="500" preserveAspectRatio="xMidYMid meet" version="1.2"><defs><clipPath id="de9bb95a74"><path d="M 34.035156 20.394531 L 340.964844 20.394531 L 340.964844 327.324219 L 34.035156 327.324219 Z M 34.035156 20.394531 "/></clipPath><clipPath id="94856fc99b"><path d="M 187.5 20.394531 C 102.742188 20.394531 34.035156 89.101562 34.035156 173.859375 C 34.035156 258.617188 102.742188 327.324219 187.5 327.324219 C 272.257812 327.324219 340.964844 258.617188 340.964844 173.859375 C 340.964844 89.101562 272.257812 20.394531 187.5 20.394531 Z M 187.5 20.394531 "/></clipPath></defs><g id="87cbf38205"><g clip-rule="nonzero" clip-path="url(#de9bb95a74)"><g clip-rule="nonzero" clip-path="url(#94856fc99b)"><path style=" stroke:none;fill-rule:nonzero;fill:#1abc9c;fill-opacity:1;" d="M 34.035156 20.394531 L 340.964844 20.394531 L 340.964844 327.324219 L 34.035156 327.324219 Z M 34.035156 20.394531 "/></g></g><g style="fill:#ffffff;fill-opacity:1;"><g transform="translate(128.249996, 148.362559)"><path style="stroke:none" d="M 33.125 -49.5 L 53.15625 0 L 41.046875 0 L 37.3125 -9.90625 L 18.484375 -9.90625 L 14.875 0 L 2.765625 0 L 22.6875 -49.5 Z M 33.484375 -19.796875 L 27.84375 -34.203125 L 22.3125 -19.796875 Z M 33.484375 -19.796875 "/></g></g><g style="fill:#ffffff;fill-opacity:1;"><g transform="translate(184.099117, 148.362559)"><path style="stroke:none" d="M 34.265625 -0.296875 L 28.375 -0.296875 L 15.78125 -31.375 L 15.59375 0 L 4.375 0 L 4.375 -49.5 L 20.34375 -49.5 L 31.375 -20.9375 L 42.296875 -49.5 L 58.3125 -49.5 L 58.3125 0 L 47.09375 0 L 46.984375 -31.375 Z M 34.265625 -0.296875 "/></g></g><g style="fill:#ffffff;fill-opacity:1;"><g transform="translate(60.703126, 231.612554)"><path style="stroke:none" d="M 31.3125 -24.71875 C 31.3125 -27.601562 30.832031 -30.15625 29.875 -32.375 C 28.914062 -34.59375 27.273438 -36.320312 24.953125 -37.5625 C 22.640625 -38.800781 19.441406 -39.421875 15.359375 -39.421875 L 15.359375 -10.078125 C 19.441406 -10.078125 22.640625 -10.695312 24.953125 -11.9375 C 27.273438 -13.175781 28.914062 -14.894531 29.875 -17.09375 C 30.832031 -19.300781 31.3125 -21.84375 31.3125 -24.71875 Z M 4.078125 -49.5 L 18.484375 -49.5 C 21.878906 -49.5 25.078125 -48.890625 28.078125 -47.671875 C 31.078125 -46.453125 33.726562 -44.738281 36.03125 -42.53125 C 38.332031 -40.332031 40.128906 -37.722656 41.421875 -34.703125 C 42.722656 -31.691406 43.375 -28.382812 43.375 -24.78125 C 43.375 -21.175781 42.722656 -17.863281 41.421875 -14.84375 C 40.128906 -11.820312 38.332031 -9.203125 36.03125 -6.984375 C 33.726562 -4.765625 31.078125 -3.046875 28.078125 -1.828125 C 25.078125 -0.609375 21.878906 0 18.484375 0 L 4.078125 0 Z M 4.078125 -49.5 "/></g></g><g style="fill:#ffffff;fill-opacity:1;"><g transform="translate(108.153886, 231.612554)"><path style="stroke:none" d="M 32.578125 -49.5 L 32.578125 -39.59375 L 15.546875 -39.59375 L 15.546875 -29.765625 L 31.859375 -29.765625 L 31.859375 -19.859375 L 15.546875 -19.859375 L 15.546875 -9.90625 L 32.578125 -9.90625 L 32.578125 0 L 4.265625 0 L 4.265625 -49.5 Z M 32.578125 -49.5 "/></g></g><g style="fill:#ffffff;fill-opacity:1;"><g transform="translate(144.926726, 231.612554)"><path style="stroke:none" d="M 8.8125 -15.125 C 10.09375 -14.195312 11.582031 -13.34375 13.28125 -12.5625 C 14.988281 -11.789062 16.703125 -11.179688 18.421875 -10.734375 C 20.140625 -10.296875 21.726562 -10.097656 23.1875 -10.140625 C 24.644531 -10.179688 25.820312 -10.53125 26.71875 -11.1875 C 27.625 -11.851562 28.078125 -12.925781 28.078125 -14.40625 C 28.078125 -15.71875 27.578125 -16.882812 26.578125 -17.90625 C 25.578125 -18.925781 24.296875 -19.882812 22.734375 -20.78125 C 21.179688 -21.6875 19.523438 -22.597656 17.765625 -23.515625 C 16.003906 -24.441406 14.34375 -25.453125 12.78125 -26.546875 C 11.21875 -27.648438 9.945312 -28.910156 8.96875 -30.328125 C 7.988281 -31.742188 7.5 -33.394531 7.5 -35.28125 C 7.5 -37.394531 7.945312 -39.460938 8.84375 -41.484375 C 9.75 -43.503906 11.082031 -45.265625 12.84375 -46.765625 C 14.601562 -48.265625 16.75 -49.332031 19.28125 -49.96875 C 21.820312 -50.613281 24.742188 -50.625 28.046875 -50 C 31.347656 -49.382812 35 -47.957031 39 -45.71875 L 34.4375 -36.71875 C 32.5625 -38.320312 30.691406 -39.375 28.828125 -39.875 C 26.972656 -40.375 25.265625 -40.472656 23.703125 -40.171875 C 22.140625 -39.867188 20.890625 -39.304688 19.953125 -38.484375 C 19.015625 -37.671875 18.546875 -36.742188 18.546875 -35.703125 C 18.546875 -34.773438 19.0625 -33.941406 20.09375 -33.203125 C 21.132812 -32.460938 22.484375 -31.722656 24.140625 -30.984375 C 25.804688 -30.242188 27.578125 -29.425781 29.453125 -28.53125 C 31.335938 -27.632812 33.109375 -26.570312 34.765625 -25.34375 C 36.429688 -24.125 37.789062 -22.6875 38.84375 -21.03125 C 39.90625 -19.375 40.4375 -17.382812 40.4375 -15.0625 C 40.4375 -12.695312 39.796875 -10.414062 38.515625 -8.21875 C 37.234375 -6.019531 35.453125 -4.117188 33.171875 -2.515625 C 30.898438 -0.921875 28.203125 0.132812 25.078125 0.65625 C 21.960938 1.175781 18.550781 0.976562 14.84375 0.0625 C 11.144531 -0.851562 7.257812 -2.753906 3.1875 -5.640625 Z M 8.8125 -15.125 "/></g></g><g style="fill:#ffffff;fill-opacity:1;"><g transform="translate(188.478245, 231.612554)"><path style="stroke:none" d="M 15.78125 -49.5 L 15.78125 0 L 4.5 0 L 4.5 -49.5 Z M 15.78125 -49.5 "/></g></g><g style="fill:#ffffff;fill-opacity:1;"><g transform="translate(208.75429, 231.612554)"><path style="stroke:none" d="M 50.578125 -27.71875 L 50.578125 0 L 44.765625 -2.046875 L 45.0625 -5.640625 C 42.976562 -3.359375 40.46875 -1.695312 37.53125 -0.65625 C 34.59375 0.382812 31.320312 0.90625 27.71875 0.90625 C 24.394531 0.90625 21.273438 0.242188 18.359375 -1.078125 C 15.441406 -2.398438 12.867188 -4.238281 10.640625 -6.59375 C 8.421875 -8.957031 6.691406 -11.6875 5.453125 -14.78125 C 4.210938 -17.882812 3.59375 -21.195312 3.59375 -24.71875 C 3.59375 -28.28125 4.191406 -31.609375 5.390625 -34.703125 C 6.597656 -37.804688 8.28125 -40.535156 10.4375 -42.890625 C 12.601562 -45.253906 15.15625 -47.097656 18.09375 -48.421875 C 21.03125 -49.742188 24.238281 -50.40625 27.71875 -50.40625 C 32.082031 -50.40625 35.8125 -49.644531 38.90625 -48.125 C 42.007812 -46.601562 44.640625 -44.539062 46.796875 -41.9375 L 39.421875 -33.84375 C 37.984375 -36.15625 36.332031 -37.789062 34.46875 -38.75 C 32.613281 -39.71875 30.582031 -40.203125 28.375 -40.203125 C 26.0625 -40.203125 23.953125 -39.507812 22.046875 -38.125 C 20.148438 -36.75 18.628906 -34.890625 17.484375 -32.546875 C 16.347656 -30.210938 15.78125 -27.601562 15.78125 -24.71875 C 15.78125 -21.914062 16.347656 -19.363281 17.484375 -17.0625 C 18.628906 -14.769531 20.148438 -12.929688 22.046875 -11.546875 C 23.953125 -10.171875 26.0625 -9.484375 28.375 -9.484375 C 30.175781 -9.484375 31.894531 -9.851562 33.53125 -10.59375 C 35.175781 -11.332031 36.519531 -12.421875 37.5625 -13.859375 C 38.601562 -15.296875 39.125 -17.015625 39.125 -19.015625 L 28.921875 -19.015625 L 26.875 -27.71875 Z M 50.578125 -27.71875 "/></g></g><g style="fill:#ffffff;fill-opacity:1;"><g transform="translate(262.923739, 231.612554)"><path style="stroke:none" d="M 4.5 0 L 4.5 -49.5 L 35.453125 -24 L 35.578125 -49.5 L 46.859375 -49.5 L 46.859375 0 L 15.78125 -25.4375 L 15.78125 0 Z M 4.5 0 "/></g></g></g></svg>